<?xml version="1.0" standalone="no"?><!DOCTYPE svg PUBLIC "-//W3C//DTD SVG 1.1//EN" "http://www.w3.org/Graphics/SVG/1.1/DTD/svg11.dtd"><svg t="1690616108222" class="icon" viewBox="0 0 1024 1024" version="1.1" xmlns="http://www.w3.org/2000/svg" p-id="1475" xmlns:xlink="http://www.w3.org/1999/xlink" width="200" height="200"><path d="M414.272 940.16a44.8 44.8 0 0 1-44.8-44.8V618.496a44.8 44.8 0 0 1 16.064-34.368l268.8-224.832a44.8 44.8 0 1 1 57.6 68.672l-252.48 211.2v117.632l33.408-46.144a44.8 44.8 0 0 1 60.608-11.392l114.176 73.664 174.208-590.08-620.224 291.52 94.336 67.968a44.8 44.8 0 1 1-52.352 72.704L107.52 502.592a44.8 44.8 0 0 1 7.104-76.8l695.296-326.784 0.704-0.32a95.104 95.104 0 0 1 108.8 9.664c7.488 7.36 24.96 27.968 11.584 88.704 0 1.024-0.512 2.048-0.768 3.008L736.64 855.808a44.8 44.8 0 0 1-67.264 24.96l-128.768-83.2-89.6 123.776a44.8 44.8 0 0 1-36.736 18.816z" fill="#8a8a8a" fill-opacity="0.9" p-id="1476"></path></svg>