<?xml version="1.0" standalone="no"?><!DOCTYPE svg PUBLIC "-//W3C//DTD SVG 1.1//EN" "http://www.w3.org/Graphics/SVG/1.1/DTD/svg11.dtd"><svg t="1657715191781" class="icon" viewBox="0 0 1024 1024" version="1.1" xmlns="http://www.w3.org/2000/svg" p-id="3285" xmlns:xlink="http://www.w3.org/1999/xlink" width="200" height="200"><defs><style type="text/css">@font-face { font-family: feedback-iconfont; src: url("//at.alicdn.com/t/font_1031158_u69w8yhxdu.woff2?t=1630033759944") format("woff2"), url("//at.alicdn.com/t/font_1031158_u69w8yhxdu.woff?t=1630033759944") format("woff"), url("//at.alicdn.com/t/font_1031158_u69w8yhxdu.ttf?t=1630033759944") format("truetype"); }
</style></defs><path d="M531.187229 256.51086C524.791486 218.136403 524.791486 134.991746 550.374457 90.221546 563.165943 71.034318 575.957428 64.638575 588.748914 64.638575c127.914857-6.395743 127.914857 31.978714 127.914857 51.165943S710.268028 141.387489 703.872285 147.783232c-25.582971 19.187229-83.144657 19.187229-127.914857 19.187229 0 19.187229 0 44.7702 0 63.957428 44.7702 6.395743 127.914857 6.395743 172.685057-31.978714 25.582971-19.187229 31.978714-51.165943 31.978714-83.144657C774.225456 32.659861 710.268028-5.714596 582.353171 0.681147c-38.374457 0-63.957428 19.187229-83.144657 51.165943C460.834057 109.408775 460.834057 205.344917 467.2298 256.51086 205.004344 288.489574 0.340573 557.110773 0.340573 825.731972c0 89.5404 57.561686 102.331885 140.706342 102.331885 51.165943 0 115.123371-6.395743 172.685057-6.395743 25.582971 0 44.7702 0 70.353171 6.395743 127.914857 12.791486 204.663771 95.936143 319.787142 95.936143 76.748914 0 140.706342-51.165943 191.872285-70.353171 51.165943-25.582971 127.914857-44.7702 127.914857-108.727628C1023.659427 569.902259 806.20417 269.302346 531.187229 256.51086zM313.731972 857.710686 313.731972 857.710686C320.127715 787.357515 345.710686 704.212858 409.668115 704.212858l0 0c12.791486 0 25.582971 0 31.978714 12.791486 31.978714 31.978714 38.374457 102.331885 38.374457 172.685057-25.582971-6.395743-57.561686-19.187229-89.5404-19.187229C371.293658 857.710686 345.710686 857.710686 313.731972 857.710686zM543.978714 908.876629c6.395743-83.144657-6.395743-185.476542-57.561686-236.642485C467.2298 646.651173 435.251086 640.25543 409.668115 640.25543l0 0c-63.957428 0-140.706342 38.374457-159.893571 223.850999-6.395743 0-19.187229 0-25.582971 0-25.582971 0-51.165943 0-76.748914 0C64.298002 864.106429 64.298002 851.314943 64.298002 825.731972 64.298002 595.48523 243.378801 333.259774 492.812771 320.468288 499.208514 326.864031 505.604257 333.259774 512 346.05126c38.374457 44.7702 108.727628 127.914857 153.497828 268.621199C703.872285 736.191572 703.872285 851.314943 703.872285 960.042572c-44.7702 0-89.5404-19.187229-134.3106-38.374457C556.7702 915.272372 550.374457 915.272372 543.978714 908.876629zM902.140313 876.897915c-12.791486 6.395743-25.582971 12.791486-38.374457 12.791486-12.791486 6.395743-25.582971 12.791486-38.374457 19.187229-19.187229 12.791486-38.374457 19.187229-57.561686 31.978714 0-108.727628 0-223.850999-38.374457-351.765856S627.123371 371.634231 582.353171 320.468288c217.455256 44.7702 377.348827 294.20417 377.348827 518.05517C959.701998 851.314943 921.327541 870.502172 902.140313 876.897915z" p-id="3286"></path></svg>